<svg width="809" height="367" viewBox="0 0 809 367" fill="none" xmlns="http://www.w3.org/2000/svg">
<rect width="182" height="92" fill="#8AD437"/>
<path d="M80.216 45.768C80.216 40.232 81.016 35.976 82.616 33C84.216 29.992 87.16 28.488 91.448 28.488C95.704 28.488 98.632 29.992 100.232 33C101.832 35.976 102.632 40.232 102.632 45.768C102.632 51.368 101.832 55.688 100.232 58.728C98.632 61.736 95.704 63.24 91.448 63.24C87.16 63.24 84.216 61.736 82.616 58.728C81.016 55.688 80.216 51.368 80.216 45.768ZM100.52 45.768C100.52 42.568 100.28 39.864 99.8 37.656C99.352 35.448 98.456 33.704 97.112 32.424C95.8 31.112 93.912 30.456 91.448 30.456C88.984 30.456 87.08 31.112 85.736 32.424C84.424 33.704 83.528 35.448 83.048 37.656C82.6 39.864 82.376 42.568 82.376 45.768C82.376 49.032 82.6 51.784 83.048 54.024C83.528 56.232 84.424 57.992 85.736 59.304C87.08 60.616 88.984 61.272 91.448 61.272C93.912 61.272 95.8 60.616 97.112 59.304C98.456 57.992 99.352 56.232 99.8 54.024C100.28 51.784 100.52 49.032 100.52 45.768Z" fill="white"/>
<rect x="182" width="91" height="92" fill="#DB1718"/>
<path d="M223.104 28.84V26.872H230.208V61H228.048V28.84H223.104Z" fill="white"/>
<rect x="273" width="91" height="92" fill="#2C2D2F"/>
<path d="M307.4 61.416C313.416 57.256 318.152 53.24 321.608 49.368C325.096 45.496 326.84 41.784 326.84 38.232C326.84 35.896 326.216 33.992 324.968 32.52C323.752 31.048 321.752 30.312 318.968 30.312C316.184 30.312 314.056 31.16 312.584 32.856C311.112 34.552 310.28 36.792 310.088 39.576H307.976C308.2 36.056 309.288 33.32 311.24 31.368C313.192 29.416 315.768 28.44 318.968 28.44C321.88 28.44 324.264 29.256 326.12 30.888C328.008 32.52 328.952 34.952 328.952 38.184C328.952 42.184 327.112 46.216 323.432 50.28C319.784 54.344 315.608 57.928 310.904 61.032H330.056V62.856H307.4V61.416Z" fill="white"/>
<rect x="364" width="91" height="92" fill="#DB1718"/>
<path d="M399.072 37.8C399.36 34.888 400.48 32.6 402.432 30.936C404.416 29.272 407.024 28.44 410.256 28.44C412.336 28.44 414.112 28.824 415.584 29.592C417.056 30.328 418.176 31.336 418.944 32.616C419.712 33.896 420.096 35.352 420.096 36.984C420.096 39.032 419.472 40.808 418.224 42.312C416.976 43.784 415.072 44.664 412.512 44.952V45.24C414.976 45.624 416.96 46.568 418.464 48.072C419.968 49.576 420.72 51.592 420.72 54.12C420.72 56.808 419.824 59.016 418.032 60.744C416.272 62.44 413.68 63.288 410.256 63.288C407.024 63.288 404.352 62.424 402.24 60.696C400.16 58.968 398.912 56.52 398.496 53.352H400.608C400.992 55.72 402.016 57.656 403.68 59.16C405.344 60.632 407.536 61.368 410.256 61.368C413.008 61.368 415.088 60.68 416.496 59.304C417.936 57.928 418.656 56.152 418.656 53.976C418.656 51.352 417.648 49.384 415.632 48.072C413.648 46.76 410.8 46.104 407.088 46.104H406.176V44.232H407.136C414.368 44.2 417.984 41.832 417.984 37.128C417.984 35.08 417.296 33.432 415.92 32.184C414.576 30.936 412.672 30.312 410.208 30.312C407.808 30.312 405.776 30.952 404.112 32.232C402.48 33.48 401.504 35.336 401.184 37.8H399.072Z" fill="white"/>
<rect x="455" width="91" height="92" fill="#2C2D2F"/>
<path d="M488.296 54.36V52.68L506.584 29.016H509.032V52.488H514.504V54.36H509.032V63H506.92V54.36H488.296ZM506.968 31.608L490.84 52.488H506.968V31.608Z" fill="white"/>
<rect x="546" width="91" height="92" fill="#DB1718"/>
<path d="M602.48 30.792H584.048V44.568C584.912 43.352 586.176 42.36 587.84 41.592C589.504 40.792 591.312 40.392 593.264 40.392C595.856 40.392 597.968 40.92 599.6 41.976C601.264 43 602.464 44.344 603.2 46.008C603.936 47.672 604.304 49.48 604.304 51.432C604.304 53.608 603.904 55.592 603.104 57.384C602.304 59.144 601.04 60.568 599.312 61.656C597.616 62.712 595.472 63.24 592.88 63.24C589.744 63.24 587.152 62.392 585.104 60.696C583.088 58.968 581.856 56.648 581.408 53.736H583.52C584 56.2 585.072 58.088 586.736 59.4C588.4 60.68 590.448 61.32 592.88 61.32C595.984 61.32 598.32 60.424 599.888 58.632C601.456 56.808 602.24 54.424 602.24 51.48C602.24 48.6 601.44 46.344 599.84 44.712C598.272 43.08 596.016 42.264 593.072 42.264C591.056 42.264 589.248 42.712 587.648 43.608C586.08 44.504 584.864 45.736 584 47.304H581.984V28.872H602.48V30.792Z" fill="white"/>
<rect x="638.5" y="1.5" width="169" height="89" stroke="#0A6426" stroke-width="3"/>
<path d="M668.4 61.416C674.416 57.256 679.152 53.24 682.608 49.368C686.096 45.496 687.84 41.784 687.84 38.232C687.84 35.896 687.216 33.992 685.968 32.52C684.752 31.048 682.752 30.312 679.968 30.312C677.184 30.312 675.056 31.16 673.584 32.856C672.112 34.552 671.28 36.792 671.088 39.576H668.976C669.2 36.056 670.288 33.32 672.24 31.368C674.192 29.416 676.768 28.44 679.968 28.44C682.88 28.44 685.264 29.256 687.12 30.888C689.008 32.52 689.952 34.952 689.952 38.184C689.952 42.184 688.112 46.216 684.432 50.28C680.784 54.344 676.608 57.928 671.904 61.032H691.056V62.856H668.4V61.416ZM714.074 38.808V56.04C714.074 57.96 714.426 59.288 715.13 60.024C715.834 60.728 717.082 61.08 718.874 61.08H721.802V63H718.538C716.266 63 714.586 62.472 713.498 61.416C712.442 60.328 711.914 58.536 711.914 56.04V38.808H707.978V36.936H711.914V30.312H714.074V36.936H721.802V38.808H714.074ZM738.971 63.384C736.539 63.384 734.347 62.84 732.395 61.752C730.443 60.664 728.907 59.112 727.787 57.096C726.699 55.048 726.155 52.664 726.155 49.944C726.155 47.256 726.715 44.904 727.835 42.888C728.955 40.84 730.491 39.288 732.443 38.232C734.427 37.144 736.635 36.6 739.067 36.6C741.499 36.6 743.691 37.144 745.643 38.232C747.595 39.288 749.115 40.824 750.203 42.84C751.323 44.856 751.883 47.224 751.883 49.944C751.883 52.664 751.323 55.048 750.203 57.096C749.083 59.112 747.531 60.664 745.547 61.752C743.595 62.84 741.403 63.384 738.971 63.384ZM738.971 61.464C740.859 61.464 742.619 61.048 744.251 60.216C745.915 59.352 747.243 58.056 748.234 56.328C749.227 54.6 749.723 52.472 749.723 49.944C749.723 47.448 749.227 45.336 748.234 43.608C747.243 41.88 745.931 40.6 744.299 39.768C742.667 38.904 740.907 38.472 739.019 38.472C737.131 38.472 735.371 38.904 733.739 39.768C732.139 40.6 730.843 41.88 729.851 43.608C728.859 45.336 728.363 47.448 728.363 49.944C728.363 52.472 728.843 54.6 729.803 56.328C730.795 58.056 732.091 59.352 733.691 60.216C735.323 61.048 737.083 61.464 738.971 61.464ZM769.151 30.84V28.872H776.255V63H774.095V30.84H769.151Z" fill="white"/>
<rect y="184" width="91" height="92" fill="#DB1718"/>
<path d="M27.104 214.84V212.872H34.208V247H32.048V214.84H27.104ZM41.4939 221.8C41.7819 218.888 42.9019 216.6 44.8539 214.936C46.8379 213.272 49.4459 212.44 52.6779 212.44C54.7579 212.44 56.5339 212.824 58.0059 213.592C59.4779 214.328 60.5979 215.336 61.3659 216.616C62.1339 217.896 62.5179 219.352 62.5179 220.984C62.5179 223.032 61.8939 224.808 60.6459 226.312C59.3979 227.784 57.4939 228.664 54.9339 228.952V229.24C57.3979 229.624 59.3819 230.568 60.8859 232.072C62.3899 233.576 63.1419 235.592 63.1419 238.12C63.1419 240.808 62.2459 243.016 60.4539 244.744C58.6939 246.44 56.1019 247.288 52.6779 247.288C49.4459 247.288 46.7739 246.424 44.6619 244.696C42.5819 242.968 41.3339 240.52 40.9179 237.352H43.0299C43.4139 239.72 44.4379 241.656 46.1019 243.16C47.7659 244.632 49.9579 245.368 52.6779 245.368C55.4299 245.368 57.5099 244.68 58.9179 243.304C60.3579 241.928 61.0779 240.152 61.0779 237.976C61.0779 235.352 60.0699 233.384 58.0539 232.072C56.0699 230.76 53.2219 230.104 49.5099 230.104H48.5979V228.232H49.5579C56.7899 228.2 60.4059 225.832 60.4059 221.128C60.4059 219.08 59.7179 217.432 58.3419 216.184C56.9979 214.936 55.0939 214.312 52.6299 214.312C50.2299 214.312 48.1979 214.952 46.5339 216.232C44.9019 217.48 43.9259 219.336 43.6059 221.8H41.4939Z" fill="white"/>
<rect x="91" y="184" width="91" height="92" fill="#2C2D2F"/>
<path d="M124.104 214.84V212.872H131.208V247H129.048V214.84H124.104ZM136.718 238.36V236.68L155.006 213.016H157.454V236.488H162.926V238.36H157.454V247H155.342V238.36H136.718ZM155.39 215.608L139.262 236.488H155.39V215.608Z" fill="white"/>
<rect x="182" y="184" width="91" height="92" fill="#DB1718"/>
<path d="M208.104 214.84V212.872H215.208V247H213.048V214.84H208.104ZM243.902 214.792H225.47V228.568C226.334 227.352 227.598 226.36 229.262 225.592C230.926 224.792 232.734 224.392 234.686 224.392C237.278 224.392 239.39 224.92 241.022 225.976C242.686 227 243.886 228.344 244.622 230.008C245.358 231.672 245.726 233.48 245.726 235.432C245.726 237.608 245.326 239.592 244.526 241.384C243.726 243.144 242.462 244.568 240.734 245.656C239.038 246.712 236.894 247.24 234.302 247.24C231.166 247.24 228.574 246.392 226.526 244.696C224.51 242.968 223.278 240.648 222.83 237.736H224.942C225.422 240.2 226.494 242.088 228.158 243.4C229.822 244.68 231.87 245.32 234.302 245.32C237.406 245.32 239.742 244.424 241.31 242.632C242.878 240.808 243.662 238.424 243.662 235.48C243.662 232.6 242.862 230.344 241.262 228.712C239.694 227.08 237.438 226.264 234.494 226.264C232.478 226.264 230.67 226.712 229.07 227.608C227.502 228.504 226.286 229.736 225.422 231.304H223.406V212.872H243.902V214.792Z" fill="white"/>
<rect x="273" y="184" width="91" height="92" fill="#2C2D2F"/>
<path d="M298.104 214.84V212.872H305.208V247H303.048V214.84H298.104ZM332.99 221.464C332.638 219.16 331.79 217.384 330.446 216.136C329.102 214.856 327.262 214.216 324.926 214.216C321.63 214.216 319.102 215.432 317.342 217.864C315.614 220.296 314.75 224.232 314.75 229.672L314.798 231.544C315.31 229.336 316.542 227.592 318.494 226.312C320.446 225 322.718 224.344 325.31 224.344C328.766 224.344 331.47 225.384 333.422 227.464C335.374 229.544 336.35 232.392 336.35 236.008C336.35 238.056 335.966 239.928 335.198 241.624C334.43 243.32 333.214 244.68 331.55 245.704C329.886 246.728 327.806 247.24 325.31 247.24C320.51 247.24 317.23 245.736 315.47 242.728C313.71 239.688 312.83 235.512 312.83 230.2C312.83 224.472 313.774 220.072 315.662 217C317.582 213.928 320.67 212.392 324.926 212.392C327.902 212.392 330.238 213.224 331.934 214.888C333.662 216.52 334.702 218.712 335.054 221.464H332.99ZM324.974 226.216C323.342 226.216 321.774 226.552 320.27 227.224C318.766 227.896 317.534 228.92 316.574 230.296C315.646 231.64 315.182 233.288 315.182 235.24C315.182 237.032 315.534 238.712 316.238 240.28C316.974 241.816 318.094 243.064 319.598 244.024C321.102 244.952 322.974 245.416 325.214 245.416C327.966 245.416 330.158 244.584 331.79 242.92C333.422 241.256 334.238 238.968 334.238 236.056C334.238 232.92 333.422 230.504 331.79 228.808C330.158 227.08 327.886 226.216 324.974 226.216Z" fill="white"/>
<rect x="364" y="184" width="91" height="92" fill="#DB1718"/>
<path d="M392.104 214.84V212.872H399.208V247H397.048V214.84H392.104ZM426.366 214.648L412.926 247H410.718L424.35 214.792H404.286V212.92H426.366V214.648Z" fill="white"/>
<rect x="455" y="184" width="91" height="92" fill="#2C2D2F"/>
<path d="M481.104 214.84V212.872H488.208V247H486.048V214.84H481.104ZM502.79 229.384C500.55 228.808 498.87 227.816 497.75 226.408C496.63 225 496.07 223.304 496.07 221.32C496.07 218.696 497.046 216.568 498.998 214.936C500.982 213.304 503.718 212.488 507.206 212.488C510.694 212.488 513.414 213.304 515.366 214.936C517.35 216.568 518.342 218.696 518.342 221.32C518.342 223.272 517.782 224.968 516.662 226.408C515.542 227.816 513.862 228.808 511.622 229.384C514.022 229.896 515.894 230.92 517.238 232.456C518.614 233.992 519.302 235.912 519.302 238.216C519.302 241.256 518.214 243.672 516.038 245.464C513.894 247.224 510.95 248.104 507.206 248.104C503.462 248.104 500.518 247.224 498.374 245.464C496.23 243.672 495.158 241.256 495.158 238.216C495.158 235.912 495.83 233.992 497.174 232.456C498.55 230.888 500.422 229.864 502.79 229.384ZM516.23 221.464C516.23 219.192 515.414 217.432 513.782 216.184C512.15 214.936 509.958 214.312 507.206 214.312C504.454 214.312 502.262 214.936 500.63 216.184C498.998 217.4 498.182 219.176 498.182 221.512C498.182 223.72 498.998 225.464 500.63 226.744C502.262 227.992 504.454 228.616 507.206 228.616C509.958 228.616 512.15 227.976 513.782 226.696C515.414 225.416 516.23 223.672 516.23 221.464ZM507.206 230.344C504.294 230.344 501.894 230.984 500.006 232.264C498.15 233.544 497.222 235.512 497.222 238.168C497.222 240.696 498.118 242.68 499.91 244.12C501.734 245.56 504.166 246.28 507.206 246.28C510.246 246.28 512.662 245.56 514.454 244.12C516.246 242.68 517.142 240.696 517.142 238.168C517.142 235.544 516.214 233.592 514.358 232.312C512.502 231 510.118 230.344 507.206 230.344Z" fill="white"/>
<rect x="546" y="184" width="91" height="92" fill="#DB1718"/>
<path d="M571.104 214.84V212.872H578.208V247H576.048V214.84H571.104ZM588.854 238.072C589.174 240.408 590.022 242.216 591.398 243.496C592.806 244.776 594.694 245.416 597.062 245.416C600.294 245.416 602.742 244.216 604.406 241.816C606.102 239.416 606.95 235.528 606.95 230.152L606.902 228.28C606.422 230.392 605.222 232.072 603.302 233.32C601.414 234.568 599.206 235.192 596.678 235.192C593.222 235.192 590.502 234.168 588.518 232.12C586.534 230.072 585.542 227.24 585.542 223.624C585.542 220.424 586.454 217.768 588.278 215.656C590.134 213.512 592.918 212.44 596.63 212.44C601.302 212.44 604.502 213.928 606.23 216.904C607.99 219.88 608.87 224.024 608.87 229.336C608.87 235.192 607.958 239.656 606.134 242.728C604.31 245.768 601.254 247.288 596.966 247.288C593.958 247.288 591.59 246.456 589.862 244.792C588.134 243.096 587.11 240.856 586.79 238.072H588.854ZM596.918 233.368C598.55 233.368 600.102 233.032 601.574 232.36C603.046 231.656 604.23 230.632 605.126 229.288C606.054 227.944 606.518 226.312 606.518 224.392C606.518 222.568 606.166 220.888 605.462 219.352C604.758 217.816 603.654 216.584 602.15 215.656C600.678 214.728 598.838 214.264 596.63 214.264C593.91 214.264 591.718 215.112 590.054 216.808C588.422 218.472 587.606 220.744 587.606 223.624C587.606 226.728 588.422 229.128 590.054 230.824C591.686 232.52 593.974 233.368 596.918 233.368Z" fill="white"/>
<rect x="638.5" y="185.5" width="169" height="89" stroke="#0A6426" stroke-width="3"/>
<path d="M668.4 245.416C674.416 241.256 679.152 237.24 682.608 233.368C686.096 229.496 687.84 225.784 687.84 222.232C687.84 219.896 687.216 217.992 685.968 216.52C684.752 215.048 682.752 214.312 679.968 214.312C677.184 214.312 675.056 215.16 673.584 216.856C672.112 218.552 671.28 220.792 671.088 223.576H668.976C669.2 220.056 670.288 217.32 672.24 215.368C674.192 213.416 676.768 212.44 679.968 212.44C682.88 212.44 685.264 213.256 687.12 214.888C689.008 216.52 689.952 218.952 689.952 222.184C689.952 226.184 688.112 230.216 684.432 234.28C680.784 238.344 676.608 241.928 671.904 245.032H691.056V246.856H668.4V245.416ZM714.074 222.808V240.04C714.074 241.96 714.426 243.288 715.13 244.024C715.834 244.728 717.082 245.08 718.874 245.08H721.802V247H718.538C716.266 247 714.586 246.472 713.498 245.416C712.442 244.328 711.914 242.536 711.914 240.04V222.808H707.978V220.936H711.914V214.312H714.074V220.936H721.802V222.808H714.074ZM738.971 247.384C736.539 247.384 734.347 246.84 732.395 245.752C730.443 244.664 728.907 243.112 727.787 241.096C726.699 239.048 726.155 236.664 726.155 233.944C726.155 231.256 726.715 228.904 727.835 226.888C728.955 224.84 730.491 223.288 732.443 222.232C734.427 221.144 736.635 220.6 739.067 220.6C741.499 220.6 743.691 221.144 745.643 222.232C747.595 223.288 749.115 224.824 750.203 226.84C751.323 228.856 751.883 231.224 751.883 233.944C751.883 236.664 751.323 239.048 750.203 241.096C749.083 243.112 747.531 244.664 745.547 245.752C743.595 246.84 741.403 247.384 738.971 247.384ZM738.971 245.464C740.859 245.464 742.619 245.048 744.251 244.216C745.915 243.352 747.243 242.056 748.234 240.328C749.227 238.6 749.723 236.472 749.723 233.944C749.723 231.448 749.227 229.336 748.234 227.608C747.243 225.88 745.931 224.6 744.299 223.768C742.667 222.904 740.907 222.472 739.019 222.472C737.131 222.472 735.371 222.904 733.739 223.768C732.139 224.6 730.843 225.88 729.851 227.608C728.859 229.336 728.363 231.448 728.363 233.944C728.363 236.472 728.843 238.6 729.803 240.328C730.795 242.056 732.091 243.352 733.691 244.216C735.323 245.048 737.083 245.464 738.971 245.464ZM769.151 214.84V212.872H776.255V247H774.095V214.84H769.151Z" fill="white"/>
<rect y="92" width="91" height="92" fill="#2C2D2F"/>
<path d="M55.568 129.464C55.216 127.16 54.368 125.384 53.024 124.136C51.68 122.856 49.84 122.216 47.504 122.216C44.208 122.216 41.68 123.432 39.92 125.864C38.192 128.296 37.328 132.232 37.328 137.672L37.376 139.544C37.888 137.336 39.12 135.592 41.072 134.312C43.024 133 45.296 132.344 47.888 132.344C51.344 132.344 54.048 133.384 56 135.464C57.952 137.544 58.928 140.392 58.928 144.008C58.928 146.056 58.544 147.928 57.776 149.624C57.008 151.32 55.792 152.68 54.128 153.704C52.464 154.728 50.384 155.24 47.888 155.24C43.088 155.24 39.808 153.736 38.048 150.728C36.288 147.688 35.408 143.512 35.408 138.2C35.408 132.472 36.352 128.072 38.24 125C40.16 121.928 43.248 120.392 47.504 120.392C50.48 120.392 52.816 121.224 54.512 122.888C56.24 124.52 57.28 126.712 57.632 129.464H55.568ZM47.552 134.216C45.92 134.216 44.352 134.552 42.848 135.224C41.344 135.896 40.112 136.92 39.152 138.296C38.224 139.64 37.76 141.288 37.76 143.24C37.76 145.032 38.112 146.712 38.816 148.28C39.552 149.816 40.672 151.064 42.176 152.024C43.68 152.952 45.552 153.416 47.792 153.416C50.544 153.416 52.736 152.584 54.368 150.92C56 149.256 56.816 146.968 56.816 144.056C56.816 140.92 56 138.504 54.368 136.808C52.736 135.08 50.464 134.216 47.552 134.216Z" fill="white"/>
<rect x="91" y="92" width="91" height="92" fill="#DB1718"/>
<path d="M146.944 122.648L133.504 155H131.296L144.928 122.792H124.864V120.92H146.944V122.648Z" fill="white"/>
<rect x="182" y="92" width="91" height="92" fill="#2C2D2F"/>
<path d="M224.368 137.384C222.128 136.808 220.448 135.816 219.328 134.408C218.208 133 217.648 131.304 217.648 129.32C217.648 126.696 218.624 124.568 220.576 122.936C222.56 121.304 225.296 120.488 228.784 120.488C232.272 120.488 234.992 121.304 236.944 122.936C238.928 124.568 239.92 126.696 239.92 129.32C239.92 131.272 239.36 132.968 238.24 134.408C237.12 135.816 235.44 136.808 233.2 137.384C235.6 137.896 237.472 138.92 238.816 140.456C240.192 141.992 240.88 143.912 240.88 146.216C240.88 149.256 239.792 151.672 237.616 153.464C235.472 155.224 232.528 156.104 228.784 156.104C225.04 156.104 222.096 155.224 219.952 153.464C217.808 151.672 216.736 149.256 216.736 146.216C216.736 143.912 217.408 141.992 218.752 140.456C220.128 138.888 222 137.864 224.368 137.384ZM237.808 129.464C237.808 127.192 236.992 125.432 235.36 124.184C233.728 122.936 231.536 122.312 228.784 122.312C226.032 122.312 223.84 122.936 222.208 124.184C220.576 125.4 219.76 127.176 219.76 129.512C219.76 131.72 220.576 133.464 222.208 134.744C223.84 135.992 226.032 136.616 228.784 136.616C231.536 136.616 233.728 135.976 235.36 134.696C236.992 133.416 237.808 131.672 237.808 129.464ZM228.784 138.344C225.872 138.344 223.472 138.984 221.584 140.264C219.728 141.544 218.8 143.512 218.8 146.168C218.8 148.696 219.696 150.68 221.488 152.12C223.312 153.56 225.744 154.28 228.784 154.28C231.824 154.28 234.24 153.56 236.032 152.12C237.824 150.68 238.72 148.696 238.72 146.168C238.72 143.544 237.792 141.592 235.936 140.312C234.08 139 231.696 138.344 228.784 138.344Z" fill="white"/>
<rect x="273" y="92" width="91" height="92" fill="#DB1718"/>
<path d="M310.432 145.072C310.752 147.408 311.6 149.216 312.976 150.496C314.384 151.776 316.272 152.416 318.64 152.416C321.872 152.416 324.32 151.216 325.984 148.816C327.68 146.416 328.528 142.528 328.528 137.152L328.48 135.28C328 137.392 326.8 139.072 324.88 140.32C322.992 141.568 320.784 142.192 318.256 142.192C314.8 142.192 312.08 141.168 310.096 139.12C308.112 137.072 307.12 134.24 307.12 130.624C307.12 127.424 308.032 124.768 309.856 122.656C311.712 120.512 314.496 119.44 318.208 119.44C322.88 119.44 326.08 120.928 327.808 123.904C329.568 126.88 330.448 131.024 330.448 136.336C330.448 142.192 329.536 146.656 327.712 149.728C325.888 152.768 322.832 154.288 318.544 154.288C315.536 154.288 313.168 153.456 311.44 151.792C309.712 150.096 308.688 147.856 308.368 145.072H310.432ZM318.496 140.368C320.128 140.368 321.68 140.032 323.152 139.36C324.624 138.656 325.808 137.632 326.704 136.288C327.632 134.944 328.096 133.312 328.096 131.392C328.096 129.568 327.744 127.888 327.04 126.352C326.336 124.816 325.232 123.584 323.728 122.656C322.256 121.728 320.416 121.264 318.208 121.264C315.488 121.264 313.296 122.112 311.632 123.808C310 125.472 309.184 127.744 309.184 130.624C309.184 133.728 310 136.128 311.632 137.824C313.264 139.52 315.552 140.368 318.496 140.368Z" fill="white"/>
<rect x="364" y="92" width="91" height="92" fill="#2C2D2F"/>
<path d="M390.104 122.84V120.872H397.208V155H395.048V122.84H390.104ZM404.638 137.768C404.638 132.232 405.438 127.976 407.038 125C408.638 121.992 411.582 120.488 415.87 120.488C420.126 120.488 423.054 121.992 424.654 125C426.254 127.976 427.054 132.232 427.054 137.768C427.054 143.368 426.254 147.688 424.654 150.728C423.054 153.736 420.126 155.24 415.87 155.24C411.582 155.24 408.638 153.736 407.038 150.728C405.438 147.688 404.638 143.368 404.638 137.768ZM424.942 137.768C424.942 134.568 424.702 131.864 424.222 129.656C423.774 127.448 422.878 125.704 421.534 124.424C420.222 123.112 418.334 122.456 415.87 122.456C413.406 122.456 411.502 123.112 410.158 124.424C408.846 125.704 407.95 127.448 407.47 129.656C407.022 131.864 406.798 134.568 406.798 137.768C406.798 141.032 407.022 143.784 407.47 146.024C407.95 148.232 408.846 149.992 410.158 151.304C411.502 152.616 413.406 153.272 415.87 153.272C418.334 153.272 420.222 152.616 421.534 151.304C422.878 149.992 423.774 148.232 424.222 146.024C424.702 143.784 424.942 141.032 424.942 137.768Z" fill="white"/>
<rect x="455" y="92" width="91" height="92" fill="#DB1718"/>
<path d="M489.104 122.84V120.872H496.208V155H494.048V122.84H489.104ZM501.526 122.84V120.872H508.63V155H506.47V122.84H501.526Z" fill="white"/>
<rect x="546" y="92" width="91" height="92" fill="#2C2D2F"/>
<path d="M573.104 122.84V120.872H580.208V155H578.048V122.84H573.104ZM586.822 153.416C592.838 149.256 597.574 145.24 601.03 141.368C604.518 137.496 606.262 133.784 606.262 130.232C606.262 127.896 605.638 125.992 604.39 124.52C603.174 123.048 601.174 122.312 598.39 122.312C595.606 122.312 593.478 123.16 592.006 124.856C590.534 126.552 589.702 128.792 589.51 131.576H587.398C587.622 128.056 588.71 125.32 590.662 123.368C592.614 121.416 595.19 120.44 598.39 120.44C601.302 120.44 603.686 121.256 605.542 122.888C607.43 124.52 608.374 126.952 608.374 130.184C608.374 134.184 606.534 138.216 602.854 142.28C599.206 146.344 595.03 149.928 590.326 153.032H609.478V154.856H586.822V153.416Z" fill="white"/>
<rect x="638.5" y="93.5" width="169" height="89" stroke="#0A6426" stroke-width="3"/>
<path d="M668.4 153.416C674.416 149.256 679.152 145.24 682.608 141.368C686.096 137.496 687.84 133.784 687.84 130.232C687.84 127.896 687.216 125.992 685.968 124.52C684.752 123.048 682.752 122.312 679.968 122.312C677.184 122.312 675.056 123.16 673.584 124.856C672.112 126.552 671.28 128.792 671.088 131.576H668.976C669.2 128.056 670.288 125.32 672.24 123.368C674.192 121.416 676.768 120.44 679.968 120.44C682.88 120.44 685.264 121.256 687.12 122.888C689.008 124.52 689.952 126.952 689.952 130.184C689.952 134.184 688.112 138.216 684.432 142.28C680.784 146.344 676.608 149.928 671.904 153.032H691.056V154.856H668.4V153.416ZM714.074 130.808V148.04C714.074 149.96 714.426 151.288 715.13 152.024C715.834 152.728 717.082 153.08 718.874 153.08H721.802V155H718.538C716.266 155 714.586 154.472 713.498 153.416C712.442 152.328 711.914 150.536 711.914 148.04V130.808H707.978V128.936H711.914V122.312H714.074V128.936H721.802V130.808H714.074ZM738.971 155.384C736.539 155.384 734.347 154.84 732.395 153.752C730.443 152.664 728.907 151.112 727.787 149.096C726.699 147.048 726.155 144.664 726.155 141.944C726.155 139.256 726.715 136.904 727.835 134.888C728.955 132.84 730.491 131.288 732.443 130.232C734.427 129.144 736.635 128.6 739.067 128.6C741.499 128.6 743.691 129.144 745.643 130.232C747.595 131.288 749.115 132.824 750.203 134.84C751.323 136.856 751.883 139.224 751.883 141.944C751.883 144.664 751.323 147.048 750.203 149.096C749.083 151.112 747.531 152.664 745.547 153.752C743.595 154.84 741.403 155.384 738.971 155.384ZM738.971 153.464C740.859 153.464 742.619 153.048 744.251 152.216C745.915 151.352 747.243 150.056 748.234 148.328C749.227 146.6 749.723 144.472 749.723 141.944C749.723 139.448 749.227 137.336 748.234 135.608C747.243 133.88 745.931 132.6 744.299 131.768C742.667 130.904 740.907 130.472 739.019 130.472C737.131 130.472 735.371 130.904 733.739 131.768C732.139 132.6 730.843 133.88 729.851 135.608C728.859 137.336 728.363 139.448 728.363 141.944C728.363 144.472 728.843 146.6 729.803 148.328C730.795 150.056 732.091 151.352 733.691 152.216C735.323 153.048 737.083 153.464 738.971 153.464ZM769.151 122.84V120.872H776.255V155H774.095V122.84H769.151Z" fill="white"/>
<path d="M27.104 314.84V312.872H34.208V347H32.048V314.84H27.104ZM56.3739 328.04V329.912H38.3259V328.04H56.3739ZM68.0101 338.072C68.3301 340.408 69.1781 342.216 70.5541 343.496C71.9621 344.776 73.8501 345.416 76.2181 345.416C79.4501 345.416 81.8981 344.216 83.5621 341.816C85.2581 339.416 86.1061 335.528 86.1061 330.152L86.0581 328.28C85.5781 330.392 84.3781 332.072 82.4581 333.32C80.5701 334.568 78.3621 335.192 75.8341 335.192C72.3781 335.192 69.6581 334.168 67.6741 332.12C65.6901 330.072 64.6981 327.24 64.6981 323.624C64.6981 320.424 65.6101 317.768 67.4341 315.656C69.2901 313.512 72.0741 312.44 75.7861 312.44C80.4581 312.44 83.6581 313.928 85.3861 316.904C87.1461 319.88 88.0261 324.024 88.0261 329.336C88.0261 335.192 87.1141 339.656 85.2901 342.728C83.4661 345.768 80.4101 347.288 76.1221 347.288C73.1141 347.288 70.7461 346.456 69.0181 344.792C67.2901 343.096 66.2661 340.856 65.9461 338.072H68.0101ZM76.0741 333.368C77.7061 333.368 79.2581 333.032 80.7301 332.36C82.2021 331.656 83.3861 330.632 84.2821 329.288C85.2101 327.944 85.6741 326.312 85.6741 324.392C85.6741 322.568 85.3221 320.888 84.6181 319.352C83.9141 317.816 82.8101 316.584 81.3061 315.656C79.8341 314.728 77.9941 314.264 75.7861 314.264C73.0661 314.264 70.8741 315.112 69.2101 316.808C67.5781 318.472 66.7621 320.744 66.7621 323.624C66.7621 326.728 67.5781 329.128 69.2101 330.824C70.8421 332.52 73.1301 333.368 76.0741 333.368ZM123.851 347.384C120.747 347.384 117.947 346.664 115.451 345.224C112.955 343.752 111.003 341.704 109.595 339.08C108.187 336.456 107.483 333.496 107.483 330.2C107.483 326.872 108.187 323.912 109.595 321.32C111.003 318.696 112.955 316.664 115.451 315.224C117.947 313.752 120.747 313.016 123.851 313.016C126.955 313.016 129.755 313.752 132.251 315.224C134.747 316.664 136.699 318.696 138.107 321.32C139.515 323.912 140.219 326.872 140.219 330.2C140.219 333.496 139.515 336.456 138.107 339.08C136.699 341.704 134.747 343.752 132.251 345.224C129.755 346.664 126.955 347.384 123.851 347.384ZM123.851 345.464C126.507 345.464 128.907 344.84 131.051 343.592C133.195 342.344 134.875 340.568 136.091 338.264C137.339 335.96 137.963 333.272 137.963 330.2C137.963 327.096 137.339 324.392 136.091 322.088C134.875 319.784 133.195 318.008 131.051 316.76C128.907 315.512 126.507 314.888 123.851 314.888C121.195 314.888 118.795 315.512 116.651 316.76C114.507 318.008 112.811 319.784 111.563 322.088C110.315 324.392 109.691 327.096 109.691 330.2C109.691 333.272 110.315 335.96 111.563 338.264C112.811 340.568 114.507 342.344 116.651 343.592C118.795 344.84 121.195 345.464 123.851 345.464ZM156.205 313.304C161.901 313.304 166.285 314.792 169.357 317.768C172.461 320.744 174.013 324.888 174.013 330.2C174.013 335.512 172.461 339.64 169.357 342.584C166.285 345.528 161.901 347 156.205 347H146.749V313.304H156.205ZM156.205 345.176C161.293 345.176 165.165 343.864 167.821 341.24C170.477 338.584 171.805 334.904 171.805 330.2C171.805 325.464 170.477 321.768 167.821 319.112C165.165 316.456 161.293 315.128 156.205 315.128H148.909V345.176H156.205ZM190.001 313.304C195.697 313.304 200.081 314.792 203.153 317.768C206.257 320.744 207.809 324.888 207.809 330.2C207.809 335.512 206.257 339.64 203.153 342.584C200.081 345.528 195.697 347 190.001 347H180.545V313.304H190.001ZM190.001 345.176C195.089 345.176 198.961 343.864 201.617 341.24C204.273 338.584 205.601 334.904 205.601 330.2C205.601 325.464 204.273 321.768 201.617 319.112C198.961 316.456 195.089 315.128 190.001 315.128H182.705V345.176H190.001Z" fill="white"/>
<path d="M346.096 315.128V329.192H359.536V331.016H346.096V345.176H360.976V347H343.936V313.304H360.976V315.128H346.096ZM392.954 313.304L380.09 347H377.69L364.874 313.304H367.226L378.89 344.456L390.65 313.304H392.954ZM400.33 315.128V329.192H413.77V331.016H400.33V345.176H415.21V347H398.17V313.304H415.21V315.128H400.33ZM445.845 347H443.685L423.909 316.856V347H421.749V313.352H423.909L443.685 343.4V313.352H445.845V347ZM464.479 314.84V312.872H471.583V347H469.423V314.84H464.479ZM479.013 329.768C479.013 324.232 479.813 319.976 481.413 317C483.013 313.992 485.957 312.488 490.245 312.488C494.501 312.488 497.429 313.992 499.029 317C500.629 319.976 501.429 324.232 501.429 329.768C501.429 335.368 500.629 339.688 499.029 342.728C497.429 345.736 494.501 347.24 490.245 347.24C485.957 347.24 483.013 345.736 481.413 342.728C479.813 339.688 479.013 335.368 479.013 329.768ZM499.317 329.768C499.317 326.568 499.077 323.864 498.597 321.656C498.149 319.448 497.253 317.704 495.909 316.424C494.597 315.112 492.709 314.456 490.245 314.456C487.781 314.456 485.877 315.112 484.533 316.424C483.221 317.704 482.325 319.448 481.845 321.656C481.397 323.864 481.173 326.568 481.173 329.768C481.173 333.032 481.397 335.784 481.845 338.024C482.325 340.232 483.221 341.992 484.533 343.304C485.877 344.616 487.781 345.272 490.245 345.272C492.709 345.272 494.597 344.616 495.909 343.304C497.253 341.992 498.149 340.232 498.597 338.024C499.077 335.784 499.317 333.032 499.317 329.768ZM522.624 328.04V329.912H504.576V328.04H522.624ZM528.932 314.84V312.872H536.036V347H533.876V314.84H528.932ZM546.682 338.072C547.002 340.408 547.85 342.216 549.226 343.496C550.634 344.776 552.522 345.416 554.89 345.416C558.122 345.416 560.57 344.216 562.234 341.816C563.93 339.416 564.778 335.528 564.778 330.152L564.73 328.28C564.25 330.392 563.05 332.072 561.13 333.32C559.242 334.568 557.034 335.192 554.506 335.192C551.05 335.192 548.33 334.168 546.346 332.12C544.362 330.072 543.37 327.24 543.37 323.624C543.37 320.424 544.282 317.768 546.106 315.656C547.962 313.512 550.746 312.44 554.458 312.44C559.13 312.44 562.33 313.928 564.058 316.904C565.818 319.88 566.698 324.024 566.698 329.336C566.698 335.192 565.786 339.656 563.962 342.728C562.138 345.768 559.082 347.288 554.794 347.288C551.786 347.288 549.418 346.456 547.69 344.792C545.962 343.096 544.938 340.856 544.618 338.072H546.682ZM554.746 333.368C556.378 333.368 557.93 333.032 559.402 332.36C560.874 331.656 562.058 330.632 562.954 329.288C563.882 327.944 564.346 326.312 564.346 324.392C564.346 322.568 563.994 320.888 563.29 319.352C562.586 317.816 561.482 316.584 559.978 315.656C558.506 314.728 556.666 314.264 554.458 314.264C551.738 314.264 549.546 315.112 547.882 316.808C546.25 318.472 545.434 320.744 545.434 323.624C545.434 326.728 546.25 329.128 547.882 330.824C549.514 332.52 551.802 333.368 554.746 333.368Z" fill="white"/>
<path d="M278 294V367" stroke="#0A6426" stroke-width="2"/>
</svg>
